<?xml version="1.0" encoding="utf-8"?>
<!-- Generator: Adobe Illustrator 25.2.1, SVG Export Plug-In . SVG Version: 6.00 Build 0)  -->
<svg version="1.1" id="Layer_1" xmlns="http://www.w3.org/2000/svg" xmlns:xlink="http://www.w3.org/1999/xlink" x="0px" y="0px"
	 viewBox="0 0 32 32" style="enable-background:new 0 0 32 32;" xml:space="preserve">
<g>
	<path d="M5.8,15.6c0-1.5-0.5-2.8-1.6-3.9c-1.1-1.1-2.4-1.6-3.9-1.6V4.5c3.1,0,5.7,1.1,7.8,3.2c0.2,0.2,0.3,0.3,0.5,0.5
		C8.7,8.1,8.8,7.9,9,7.8c2.2-2.2,4.8-3.2,7.8-3.2v5.5c-1.5,0-2.8,0.5-3.9,1.6c-1.1,1.1-1.6,2.4-1.6,3.9s0.5,2.8,1.6,3.9
		c1.1,1.1,2.4,1.6,3.9,1.6v5.5c-3.1,0-5.7-1.1-7.8-3.2c-0.2-0.2-0.3-0.3-0.5-0.5c-0.1,0.2-0.3,0.3-0.5,0.5c-2.2,2.2-4.8,3.2-7.8,3.2
		v-5.5c1.5,0,2.8-0.5,3.9-1.6C5.2,18.5,5.8,17.1,5.8,15.6z"/>
	<path d="M24.7,18.8h-7.9l0-5.5h7.9c0.4,0,0.8-0.2,1.1-0.5c0.3-0.3,0.5-0.7,0.5-1.1s-0.2-0.8-0.5-1.1c-0.3-0.3-0.7-0.5-1.1-0.5h-7.9
		V4.6h8.7c1.8,0,3.2,0.7,4.5,2.1c1.2,1.4,1.9,3.1,1.9,5c0,1.6-0.4,3.1-1.3,4.3c0.9,1.3,1.3,2.7,1.3,4.4l0,6.3h-5.5v-6.3
		c0-0.4-0.2-0.8-0.5-1.1C25.5,18.9,25.1,18.8,24.7,18.8z"/>
</g>
</svg>
